# Blender v2.93.0 OBJ File: 'CustomModels.blend'
# www.blender.org
mtllib tombstone.mtl
o Cube
v -0.356733 0.000000 0.500000
v -0.287871 0.238832 0.431138
v -0.356733 0.000000 -0.500000
v -0.287871 0.238832 -0.431138
v 0.356733 0.000000 0.500000
v 0.287871 0.238832 0.431138
v 0.356733 0.000000 -0.500000
v 0.287871 0.238832 -0.431138
v -0.356733 0.238832 0.500000
v -0.356733 0.238832 -0.500000
v 0.356733 0.238832 -0.500000
v 0.356733 0.238832 0.500000
v -0.287871 1.055773 0.431138
v -0.287871 1.572400 0.093562
v -0.287871 1.369597 0.332264
v -0.287871 1.572400 -0.093562
v -0.287871 1.055773 -0.431138
v -0.287871 1.369597 -0.332264
v 0.287871 1.055773 -0.431138
v 0.287871 1.572400 -0.093562
v 0.287871 1.369597 -0.332264
v 0.287871 1.572400 0.093562
v 0.287871 1.055773 0.431138
v 0.287871 1.369597 0.332264
v -0.356733 0.000000 -0.500000
v -0.356733 0.000000 -0.500000
v -0.356733 0.000000 0.500000
v -0.356733 0.000000 0.500000
v -0.356733 0.238832 0.500000
v -0.356733 0.238832 0.500000
v -0.356733 0.238832 -0.500000
v -0.356733 0.238832 -0.500000
v 0.356733 0.000000 -0.500000
v 0.356733 0.000000 -0.500000
v 0.356733 0.238832 -0.500000
v 0.356733 0.238832 -0.500000
v 0.356733 0.000000 0.500000
v 0.356733 0.000000 0.500000
v 0.356733 0.238832 0.500000
v 0.356733 0.238832 0.500000
v -0.287871 0.238832 0.431138
v -0.287871 0.238832 0.431138
v -0.287871 0.238832 -0.431138
v -0.287871 0.238832 -0.431138
v 0.287871 0.238832 -0.431138
v 0.287871 0.238832 -0.431138
v 0.287871 0.238832 0.431138
v 0.287871 0.238832 0.431138
v -0.287871 1.369597 -0.332264
v -0.287871 1.572400 -0.093562
v 0.287871 1.572400 -0.093562
v 0.287871 1.369597 -0.332264
v -0.287871 1.055773 -0.431138
v 0.287871 1.055773 -0.431138
v 0.287871 1.369597 0.332264
v 0.287871 1.572400 0.093562
v -0.287871 1.572400 0.093562
v -0.287871 1.369597 0.332264
v 0.287871 1.055773 0.431138
v -0.287871 1.055773 0.431138
v 0.287871 1.369597 -0.332264
v -0.287871 1.369597 -0.332264
v -0.287871 1.369597 0.332264
v 0.287871 1.369597 0.332264
vt 0.191989 0.160028
vt 0.814211 0.011421
vt 0.191989 0.011421
vt 0.281133 0.160028
vt 0.725067 0.011421
vt 0.281133 0.011421
vt 0.814211 0.160028
vt 0.191989 0.011421
vt 0.814211 0.011421
vt 0.725067 0.160028
vt 0.281133 0.011421
vt 0.725067 0.011421
vt 0.725067 0.729938
vt 0.281133 0.107716
vt 0.281133 0.729938
vt 0.323981 0.160028
vt 0.682220 0.668347
vt 0.682220 0.160028
vt 0.323981 0.687090
vt 0.281133 0.107716
vt 0.323981 0.150563
vt 0.682220 0.687090
vt 0.281133 0.729938
vt 0.682220 0.150563
vt 0.725067 0.729938
vt 0.725067 0.107716
vt 0.682220 0.160028
vt 0.323981 0.668347
vt 0.323981 0.160028
vt 0.296358 0.863615
vt 0.234837 0.668347
vt 0.709843 0.863615
vt 0.323981 0.477043
vt 0.682220 0.360611
vt 0.682220 0.477043
vt 0.323981 0.625569
vt 0.682220 0.863615
vt 0.323981 0.668347
vt 0.323981 0.863615
vt 0.323981 0.360611
vt 0.682220 0.212085
vt 0.323981 0.863615
vt 0.682220 0.668347
vt 0.682220 0.863615
vt 0.709843 0.863615
vt 0.771364 0.668347
vt 0.296358 0.863615
vt 0.814211 0.160028
vt 0.725067 0.160028
vt 0.191989 0.160028
vt 0.281133 0.160028
vt 0.725067 0.107716
vt 0.234837 0.160028
vt 0.771364 0.160028
vt 0.771364 0.668347
vt 0.561317 0.989803
vt 0.444884 0.989803
vt 0.682220 0.625569
vt 0.323981 0.212085
vt 0.771364 0.160028
vt 0.234837 0.160028
vt 0.234837 0.668347
vt 0.444884 0.989803
vt 0.561317 0.989803
vn -1.0000 0.0000 0.0000
vn 0.0000 0.0000 -1.0000
vn 1.0000 0.0000 0.0000
vn 0.0000 0.0000 1.0000
vn 0.0000 -1.0000 0.0000
vn 0.0000 0.1520 -0.9884
vn 0.0000 1.0000 0.0000
vn 0.0000 0.1520 0.9884
vn 0.0000 0.9386 -0.3449
vn 0.0000 0.9386 0.3449
vn 0.0000 0.7621 -0.6475
vn 0.0000 0.3005 -0.9538
vn 0.0000 0.7621 0.6475
vn 0.0000 0.3005 0.9538
usemtl Stone_01
s 1
f 29/1/1 25/2/1 27/3/1
f 32/4/2 33/5/2 26/6/2
f 36/7/3 37/8/3 34/9/3
f 40/10/4 28/11/4 38/12/4
f 7/13/5 1/14/5 3/15/5
f 44/16/2 19/17/6 45/18/2
f 43/19/7 9/20/7 41/21/7
f 46/22/7 10/23/7 43/19/7
f 47/24/7 11/25/7 46/22/7
f 41/21/7 12/26/7 47/24/7
f 48/27/4 60/28/8 42/29/4
f 55/30/3 59/31/3 52/32/3
f 50/33/9 22/34/10 51/35/9
f 51/35/9 62/36/11 50/33/9
f 21/37/12 53/38/6 49/39/12
f 57/40/10 64/41/13 22/34/10
f 58/42/14 23/43/8 24/44/14
f 18/45/1 17/46/1 15/47/1
f 29/1/1 31/48/1 25/2/1
f 32/4/2 35/49/2 33/5/2
f 36/7/3 39/50/3 37/8/3
f 40/10/4 30/51/4 28/11/4
f 7/13/5 5/52/5 1/14/5
f 44/16/2 53/38/6 19/17/6
f 43/19/7 10/23/7 9/20/7
f 46/22/7 11/25/7 10/23/7
f 47/24/7 12/26/7 11/25/7
f 41/21/7 9/20/7 12/26/7
f 48/27/4 23/43/8 60/28/8
f 59/31/3 6/53/3 8/54/3
f 8/54/3 54/55/3 59/31/3
f 54/55/3 52/32/3 59/31/3
f 52/32/3 20/56/3 56/57/3
f 56/57/3 55/30/3 52/32/3
f 50/33/9 57/40/10 22/34/10
f 51/35/9 61/58/11 62/36/11
f 21/37/12 19/17/6 53/38/6
f 57/40/10 63/59/13 64/41/13
f 58/42/14 60/28/8 23/43/8
f 17/46/1 4/60/1 2/61/1
f 2/61/1 13/62/1 17/46/1
f 13/62/1 15/47/1 17/46/1
f 15/47/1 14/63/1 16/64/1
f 16/64/1 18/45/1 15/47/1
